HIERARCHY
ROOT pelvis
{
  OFFSET 0 100 0
  CHANNELS 6 Xposition Yposition Zposition Zrotation Xrotation Yrotation
  JOINT pelvis_right_femur
  {
    OFFSET -10.78128 -3.44521 -0.5502486
    CHANNELS 3 Zrotation Xrotation Yrotation
    JOINT right_femur_tibia
    {
      OFFSET -0.8047443 -44.0398 -0.1307829
      CHANNELS 3 Zrotation Xrotation Yrotation
      JOINT right_tibia_foot
      {
        OFFSET 3.006224 -47.83518 -5
        CHANNELS 3 Zrotation Xrotation Yrotation
        End Site
        {
          OFFSET 0 -5 15
        }
      }
    }
  }
  JOINT pelvis_left_femur
  {
    OFFSET 10.78128 -3.44521 -0.5502486
    CHANNELS 3 Zrotation Xrotation Yrotation
    JOINT left_femur_tibia
    {
      OFFSET 0.8047443 -44.0398 -0.1307829
      CHANNELS 3 Zrotation Xrotation Yrotation
      JOINT left_tibia_foot
      {
        OFFSET -4.370144 -48.10324 -4.275266
        CHANNELS 3 Zrotation Xrotation Yrotation
        End Site
        {
          OFFSET 0 -5 15
        }
      }
    }
  }
  JOINT pelvis_spine1
  {
    OFFSET 0 6.468898 -3.129235
    CHANNELS 3 Zrotation Xrotation Yrotation
    JOINT spine1
    {
      OFFSET 0 23.15396 4.99043
      CHANNELS 3 Zrotation Xrotation Yrotation
      JOINT spine2
      {
        OFFSET 0 20.79997 -5.064912
        CHANNELS 3 Zrotation Xrotation Yrotation
        JOINT neck
        {
          OFFSET 0 14.38658 9.616178
          CHANNELS 3 Zrotation Xrotation Yrotation
          End Site
          {
            OFFSET 0 20 0
          }
        }
      }
      JOINT right_manubrium
      {
        OFFSET -5.722621 16.35077 3.967754
        CHANNELS 3 Zrotation Xrotation Yrotation
        JOINT right_clavicle
        {
          OFFSET -13.16364 1.694482 -4.693211
          CHANNELS 3 Zrotation Xrotation Yrotation
          JOINT right_humerus
          {
            OFFSET -28.5034 -0.3100689 -2.792744
            CHANNELS 3 Zrotation Xrotation Yrotation
            JOINT right_radius
            {
              OFFSET -25.15693 0.02248979 -1.271978
              CHANNELS 3 Zrotation Xrotation Yrotation
              End Site
              {
                OFFSET -15 0 0
              }
            }
          }
        }
      }
      JOINT left_manubrium
      {
        OFFSET 5.722621 16.35077 3.967754
        CHANNELS 3 Zrotation Xrotation Yrotation
        JOINT left_clavicle
        {
          OFFSET 13.16364 1.694482 -4.693211
          CHANNELS 3 Zrotation Xrotation Yrotation
          JOINT left_humerus
          {
            OFFSET 29.39168 -1.063119 -2.237045
            CHANNELS 3 Zrotation Xrotation Yrotation
            JOINT left_radius
            {
              OFFSET 24.59957 -0.9528479 0.9047498
              CHANNELS 3 Zrotation Xrotation Yrotation
              End Site
              {
                OFFSET 15 -0 -0
              }
            }
          }
        }
      }
    }
  }
}
MOTION
Frames: 21
Frame Time: 0.0416666666667
-61.91643 107.3188 3059.863 -0.7398769 -6.70409 -13.6288 0.1770422 -20.01566 -1.373788 -0 27.34273 -0 -4.090269 2.843647 -5.192516 -5.116057 10.84932 -8.574182 -0 12.09326 -0 -1.235258 -18.2687 14.76454 -0.2479786 -1.016872 5.299879 0.8543308 13.21486 -5.965062 2.240767 23.25788 3.103892 0.1709601 -21.95722 6.622307 -5.201314 -24.85084 11.07772 92.79907 14.02194 -13.13736 -0 0 18.36008 -20.23615 8.168294 11.41998 2.702318 -19.71256 -5.04104 -92.28574 20.96188 23.77423 0 0 -9.786703 4.590837 12.57239 5.945455
-63.12272 106.3153 3065.38 -0.4024323 -5.751994 -13.21642 0.3070659 -23.24014 -2.091663 -0 19.54682 -0 -3.752539 2.051757 -5.162453 -5.30292 13.33745 -8.458263 -0 12.59804 -0 -1.436854 -19.49071 14.10352 -0.0990107 -0.9843385 4.974015 1.075024 13.41506 -6.41426 2.149868 23.38141 3.296461 0.3011895 -22.29259 6.703457 -5.363013 -24.24434 11.19275 93.82743 14.00505 -14.82397 -0 0 16.50912 -19.96061 8.09757 10.56498 2.783598 -20.59093 -5.408805 -91.41898 20.62568 22.35896 0 0 -11.19645 5.763569 13.05606 4.461615
-64.49564 105.207 3071.205 -0.1246243 -4.803551 -12.8734 0.6828096 -25.63912 -2.492153 -0 13.51746 -0 -3.422199 2.297616 -5.019815 -5.482482 15.24728 -8.114285 -0 14.58924 -0 -1.65802 -20.07632 13.41807 0.06750154 -1.019976 4.759906 1.249298 13.62301 -6.78421 2.053657 23.41292 3.461421 0.4170025 -22.60344 6.758581 -5.502932 -23.89478 11.31603 94.62099 14.00619 -16.14006 -0 0 15.19373 -19.88138 8.180525 9.927762 2.875652 -21.36295 -5.73425 -90.79362 20.13217 21.41794 0 0 -12.36376 6.828138 13.49951 3.071117
-66.05644 104.2021 3077.416 -0.03079783 -4.012969 -12.5815 1.425693 -27.02696 -2.404828 -0 9.58116 -0 -3.201178 3.196626 -4.898853 -5.51997 16.68966 -7.637485 -0 18.21611 -0 -2.228087 -19.87656 12.65947 0.2443295 -1.10344 4.687217 1.350537 13.86299 -7.043801 1.965421 23.36954 3.5654 0.50496 -22.84038 6.768444 -5.614889 -23.83665 11.44312 95.15174 14.04205 -16.99423 -0 0 14.52341 -19.97942 8.402285 9.522134 2.941987 -21.98 -6.0114 -90.47129 19.53868 21.06296 0 0 -13.09386 7.697674 13.87889 1.890192
-67.80794 103.5215 3084.01 -0.2119777 -3.399223 -12.36967 2.653782 -27.07711 -1.568838 -0 7.989341 -0 -3.079447 3.959636 -4.949614 -5.280992 17.47987 -7.209019 -0 23.61677 -0 -3.397856 -18.64438 11.82059 0.4281219 -1.221218 4.778703 1.366704 14.15747 -7.177742 1.89556 23.26041 3.572622 0.5428948 -22.96916 6.71608 -5.698472 -24.10915 11.57441 95.40761 14.11868 -17.32234 -0 0 14.58616 -20.22345 8.758393 9.354899 2.942807 -22.40759 -6.234748 -90.49625 18.88971 21.39479 0 0 -13.22177 8.298834 14.18407 1.01515
-69.7087 103.3692 3090.852 -0.6724499 -2.858937 -12.31971 4.309158 -25.50161 0.1480835 -0 8.687045 -0 -3.035723 3.644063 -5.26114 -4.707973 17.06565 -7.028544 -0 30.81483 -0 -5.087575 -16.18989 11.02239 0.6146764 -1.371934 5.049021 1.303478 14.5058 -7.185211 1.845692 23.07803 3.455909 0.5039819 -22.96971 6.590352 -5.749972 -24.7558 11.71511 95.36955 14.24613 -17.07671 -0 0 15.45489 -20.57615 9.260327 9.439308 2.849828 -22.62172 -6.387979 -90.88703 18.20135 22.49197 0 0 -12.66594 8.576106 14.41281 0.5127164
-71.66591 103.8503 3097.69 -1.252957 -2.350324 -12.52096 5.947508 -22.30976 2.332279 -0 10.86664 -0 -3.224096 1.851886 -5.677789 -3.947528 14.78236 -7.164327 -0 39.43883 -0 -6.743147 -12.75833 10.53313 0.7930191 -1.570312 5.493895 1.185529 14.86584 -7.079402 1.803736 22.79899 3.212011 0.3658344 -22.82961 6.39109 -5.749126 -25.804 11.87295 94.99771 14.44643 -16.2341 -0 0 17.15658 -21.00268 9.933277 9.806031 2.664343 -22.61295 -6.440331 -91.61361 17.46084 24.36381 0 0 -11.50117 8.501547 14.56857 0.4125282
-73.57025 104.8841 3104.272 -1.689449 -2.146865 -13.00301 6.946899 -17.91856 4.051156 -0 13.09409 -0 -3.878909 -0.7719903 -5.795666 -3.304108 10.45223 -7.446994 -0 48.3873 -0 -7.717719 -9.241358 10.59654 0.9454115 -1.845654 6.073294 1.053746 15.15844 -6.888769 1.74673 22.39757 2.872403 0.1222515 -22.54391 6.135202 -5.65462 -27.2277 12.05295 94.24424 14.73346 -14.82667 -0 0 19.60885 -21.48222 10.803 10.49925 2.425627 -22.39697 -6.359393 -92.57893 16.65166 26.88771 0 0 -9.994015 8.084584 14.66002 0.7082464
-75.34373 106.2229 3110.449 -1.820022 -2.612668 -13.70455 7.058769 -12.85965 4.67768 -0 14.12896 -0 -4.818641 -3.274061 -5.330787 -2.931291 4.576967 -7.613918 -0 55.92133 -0 -7.971704 -6.670652 11.19219 1.055091 -2.228781 6.707293 0.9553329 15.30667 -6.655042 1.656514 21.86542 2.4925 -0.2122978 -22.13044 5.857827 -5.421374 -28.92392 12.25261 93.09492 15.07413 -12.96625 -0 0 22.58947 -22.01149 11.87341 11.54873 2.192881 -22.01396 -6.134509 -93.64027 15.79201 29.79879 0 0 -8.510929 7.367964 14.6954 1.368721
-76.95845 107.5584 3116.202 -1.629766 -3.622126 -14.4779 6.47853 -7.485093 4.4812 -0 13.47903 -0 -5.3512 -5.413566 -4.433134 -2.697721 -2.161699 -7.492618 -0 60.29363 -0 -8.022186 -5.454441 12.0603 1.112434 -2.733042 7.299505 0.9270628 15.2804 -6.420455 1.537947 21.2218 2.120333 -0.6125883 -21.64477 5.60305 -5.030615 -30.73546 12.46117 91.60446 15.37454 -10.82185 -0 0 25.80006 -22.5961 13.10885 12.94051 2.011101 -21.50531 -5.787218 -94.6705 14.95078 32.7707 0 0 -7.33274 6.406977 14.67423 2.351993
-78.44606 108.5946 3121.611 -1.213643 -4.702233 -15.17901 5.558048 -2.008799 4.098972 -0 11.48783 -0 -5.051959 -7.557322 -3.535646 -2.323413 -9.078796 -7.017921 -0 60.34714 -0 -8.13523 -5.33649 13.13979 1.114124 -3.34409 7.771532 0.9793358 15.1056 -6.209571 1.421968 20.50918 1.775436 -1.054724 -21.17384 5.410529 -4.508696 -32.49944 12.66077 89.89581 15.51137 -8.568928 -0 0 28.96872 -23.24568 14.43514 14.61482 1.895861 -20.8915 -5.359723 -95.60391 14.22601 35.51696 0 0 -6.545346 5.25535 14.58794 3.608821
-79.87376 109.0922 3126.774 -0.8789692 -5.573634 -15.79104 4.7899 3.312059 3.646818 -0 9.151966 -0 -4.535343 -10.03076 -2.830907 -1.491571 -15.39609 -6.210851 -0 55.7057 -0 -7.981031 -5.832868 14.67765 1.060625 -4.0186 8.082833 1.090567 14.84088 -6.020903 1.351251 19.78567 1.457189 -1.513527 -20.81201 5.306376 -3.926163 -34.07467 12.82577 88.13755 15.38675 -6.364517 -0 0 31.89256 -23.97127 15.7461 16.4727 1.844881 -20.17754 -4.899032 -96.43319 13.70834 37.83273 0 0 -6.068205 3.976702 14.4283 5.068011
-81.26454 108.9594 3131.786 -0.9369434 -5.944748 -16.4009 4.645606 7.944242 2.944108 -0 7.496673 -0 -4.683228 -12.71747 -2.142709 -0.04366105 -20.62094 -5.098143 -0 46.90985 -0 -7.158883 -6.350959 16.47972 0.9559966 -4.680251 8.233351 1.213056 14.5462 -5.832526 1.359263 19.12552 1.170218 -1.948211 -20.63375 5.298605 -3.387436 -35.33783 12.92098 86.52302 14.98003 -4.357109 -0 0 34.406 -24.76185 16.89279 18.36061 1.853954 -19.37715 -4.447572 -97.17511 13.45924 39.5832 0 0 -5.742572 2.667187 14.19175 6.616507
-82.58425 108.3082 3136.81 -1.299492 -5.438038 -17.05982 5.018645 11.39541 2.271671 -0 7.046403 -0 -5.248225 -15.15385 -1.376604 1.709406 -24.63005 -3.807413 -0 35.94268 -0 -5.896395 -6.389421 17.79303 0.809651 -5.21882 8.258197 1.287135 14.25779 -5.615686 1.453149 18.6196 0.9421534 -2.296082 -20.66624 5.37517 -3.012374 -36.18085 12.90584 85.24115 14.37751 -2.690198 -0 0 36.34348 -25.5463 17.67818 20.05289 1.921142 -18.53119 -4.035796 -97.83382 13.5091 40.68846 0 0 -5.418367 1.456773 13.8771 8.100604
-83.81819 107.339 3142.058 -1.643383 -4.357487 -17.74482 5.276192 13.91278 1.920665 -0 7.800219 -0 -5.437554 -16.89195 -0.6404501 3.009773 -27.21838 -2.882486 -0 25.77997 -0 -4.930907 -6.06048 18.36355 0.636399 -5.526163 8.212678 1.268294 13.97912 -5.353535 1.608058 18.34665 0.8137836 -2.493332 -20.86499 5.505402 -2.881854 -36.54276 12.75748 84.40631 13.74591 -1.463245 -0 0 37.57657 -26.19312 17.93025 21.30638 2.039367 -17.70518 -3.679558 -98.38698 13.84812 41.14662 0 0 -5.020568 0.4652198 13.48667 9.374596
-85.01141 106.208 3147.672 -1.788836 -3.580816 -18.44381 4.936012 16.19425 1.690658 -0 9.528994 -0 -5.106437 -17.68139 -0.01914557 3.191436 -28.24472 -3.021796 -0 18.58787 -0 -4.779095 -5.936004 18.74425 0.452262 -5.560975 8.141998 1.154366 13.70061 -5.055814 1.782865 18.3266 0.8079848 -2.512579 -21.13035 5.652892 -2.976865 -36.44335 12.49754 84.00315 13.23394 -0.6955185 -0 0 38.08483 -26.58453 17.62699 21.98864 2.189621 -16.96844 -3.38979 -98.80384 14.41617 41.05018 0 0 -4.565016 -0.2537887 13.0378 10.36821
-86.24433 105.0413 3153.69 -1.741772 -3.653404 -19.15439 3.963967 18.49658 1.331701 -0 12.15074 -0 -4.658111 -17.17583 0.4743036 2.194839 -27.86321 -4.32853 -0 14.85182 -0 -5.251542 -6.373014 19.49816 0.2686463 -5.366437 8.064461 0.9791924 13.41803 -4.749713 1.945678 18.51287 0.9117367 -2.378716 -21.36882 5.793145 -3.200657 -35.97715 12.18024 83.91657 12.90078 -0.3235905 -0 0 37.97809 -26.6937 16.90692 22.14504 2.348288 -16.35948 -3.170483 -99.0731 15.12546 40.55017 0 0 -4.110418 -0.7260884 12.56314 11.10199
-87.57804 104.008 3160.098 -1.552577 -4.465802 -19.81779 2.586208 20.3239 1.002989 -0 16.04475 -0 -4.444275 -14.68289 0.7892074 0.513999 -26.34456 -6.13195 -0 13.98716 -0 -5.508072 -7.133852 20.55651 0.09212093 -5.020523 7.981646 0.7822765 13.13384 -4.461419 2.082476 18.83416 1.090471 -2.143761 -21.52988 5.916458 -3.45688 -35.26349 11.85678 84.01913 12.73853 -0.2489384 -0 0 37.42596 -26.56817 15.95338 21.91564 2.497753 -15.88136 -3.015163 -99.20234 15.897 39.79005 0 0 -3.709799 -1.012478 12.09722 11.63231
-89.00602 103.3481 3166.872 -1.213784 -5.481793 -20.29846 1.07903 20.75791 1.153414 -0 21.95706 -0 -4.428558 -9.612057 0.8223695 -1.246737 -23.96907 -7.533925 -0 15.0701 -0 -4.717913 -7.614742 21.26112 -0.07107163 -4.582257 7.88822 0.5898055 12.86285 -4.213538 2.191121 19.24076 1.311144 -1.853649 -21.60028 6.020924 -3.695882 -34.38755 11.55914 84.25132 12.72135 -0.4203308 -0 0 36.53996 -26.25922 14.89873 21.40756 2.625441 -15.53809 -2.921124 -99.19028 16.68519 38.84455 0 0 -3.408185 -1.149759 11.67386 11.98733
-90.44116 103.311 3173.922 -0.7195896 -6.128907 -20.42313 -0.2094614 19.11531 1.933712 -0 30.28393 -0 -4.24318 -2.530422 0.496181 -2.751775 -21.0121 -8.142237 -0 17.00462 -0 -2.94393 -7.567651 20.90354 -0.2128331 -4.076076 7.771293 0.4163835 12.63703 -4.034294 2.273737 19.71941 1.55078 -1.537858 -21.5871 6.10682 -3.912822 -33.37795 11.30544 84.64655 12.82876 -0.8795924 -0 0 35.31339 -25.77856 13.80494 20.6415 2.717662 -15.36391 -2.901201 -99.00181 17.48164 37.6957 0 0 -3.266632 -1.12563 11.33107 12.14192
-91.76801 103.9767 3181.005 -0.2661823 -6.302006 -20.0917 -0.8886701 15.50338 2.809027 -0 39.90739 -0 -3.635234 4.2114 -0.238117 -3.948681 -17.59995 -8.310088 -0 18.65449 -0 -1.272624 -7.57751 19.59713 -0.3261408 -3.512255 7.608902 0.2757568 12.49426 -3.958473 2.333117 20.27271 1.793772 -1.216352 -21.51113 6.175898 -4.120297 -32.23017 11.10768 85.28377 13.03757 -1.723144 -0 0 33.66929 -25.114 12.69562 19.59653 2.761683 -15.41001 -2.976848 -98.57932 18.2934 36.26886 0 0 -3.363591 -0.9002896 11.10572 12.0435
